<?xml version="1.0" encoding="UTF-8" standalone="no"?>
<!-- Created with Inkscape (http://www.inkscape.org/) -->

<svg
   xmlns:dc="http://purl.org/dc/elements/1.1/"
   xmlns:cc="http://creativecommons.org/ns#"
   xmlns:rdf="http://www.w3.org/1999/02/22-rdf-syntax-ns#"
   xmlns:svg="http://www.w3.org/2000/svg"
   xmlns="http://www.w3.org/2000/svg"
   xmlns:xlink="http://www.w3.org/1999/xlink"
   xmlns:sodipodi="http://sodipodi.sourceforge.net/DTD/sodipodi-0.dtd"
   xmlns:inkscape="http://www.inkscape.org/namespaces/inkscape"
   width="1000"
   height="45"
   viewBox="0 0 1000 45"
   id="svg2"
   version="1.1"
   inkscape:version="0.92.1 r15371"
   sodipodi:docname="logo_2.svg">
  <defs
     id="defs4">
    <linearGradient
       inkscape:collect="always"
       id="linearGradient4681">
      <stop
         style="stop-color:#ffffff;stop-opacity:1"
         offset="0"
         id="stop4677" />
      <stop
         style="stop-color:#323232;stop-opacity:0"
         offset="1"
         id="stop4679" />
    </linearGradient>
    <linearGradient
       inkscape:collect="always"
       id="linearGradient4635">
      <stop
         style="stop-color:#000000;stop-opacity:0.39215687"
         offset="0"
         id="stop4631" />
      <stop
         style="stop-color:#000000;stop-opacity:0"
         offset="1"
         id="stop4633" />
    </linearGradient>
    <pattern
       y="0"
       x="0"
       height="6"
       width="6"
       patternUnits="userSpaceOnUse"
       id="EMFhbasepattern" />
    <radialGradient
       inkscape:collect="always"
       xlink:href="#linearGradient4635"
       id="radialGradient4637"
       cx="322.24402"
       cy="940.37799"
       fx="322.24402"
       fy="940.37799"
       r="123.87885"
       gradientTransform="matrix(2.2425455,0,0,0.16609212,-422.9265,873.6725)"
       gradientUnits="userSpaceOnUse" />
    <pattern
       id="EMFhbasepattern-5"
       patternUnits="userSpaceOnUse"
       width="6"
       height="6"
       x="0"
       y="0" />
    <style
       id="style6"
       type="text/css">
   
    .str1 {stroke:#131516;stroke-width:3}
    .str0 {stroke:#131516;stroke-width:42}
    .fil0 {fill:none}
    .fil1 {fill:#131516}
   
  </style>
    <radialGradient
       inkscape:collect="always"
       xlink:href="#linearGradient4681"
       id="radialGradient4683"
       cx="450"
       cy="24.673828"
       fx="450"
       fy="24.673828"
       r="271.98633"
       gradientTransform="matrix(1.790312,0,0,0.06366272,-305.9197,1032.8761)"
       gradientUnits="userSpaceOnUse" />
    <clipPath
       id="clipPath174">
      <path
         id="path176"
         d="M 2,1 H 15 V 33 H 28 V 17 h 13 v 48 h 13 v 64 H 2 Z"
         inkscape:connector-curvature="0" />
    </clipPath>
    <radialGradient
       inkscape:collect="always"
       xlink:href="#linearGradient5282-4"
       id="radialGradient4196-1-2"
       cx="767.797"
       cy="229.94496"
       fx="767.797"
       fy="229.94495"
       r="32.034878"
       gradientTransform="matrix(-2.8962435e-4,0.85951366,-608.04831,0.00342589,140318.88,369.14246)"
       gradientUnits="userSpaceOnUse" />
    <linearGradient
       id="linearGradient5282-4"
       inkscape:collect="always">
      <stop
         id="stop5284-5"
         offset="0"
         style="stop-color:#505050;stop-opacity:1" />
      <stop
         id="stop5286-4"
         offset="1"
         style="stop-color:#000000;stop-opacity:1" />
    </linearGradient>
  </defs>
  <sodipodi:namedview
     id="base"
     pagecolor="#ffffff"
     bordercolor="#666666"
     borderopacity="1.0"
     inkscape:pageopacity="0.0"
     inkscape:pageshadow="2"
     inkscape:zoom="1.7583207"
     inkscape:cx="483.89062"
     inkscape:cy="-45.963055"
     inkscape:document-units="px"
     inkscape:current-layer="g4183"
     showgrid="false"
     units="px"
     inkscape:window-width="1920"
     inkscape:window-height="1028"
     inkscape:window-x="-8"
     inkscape:window-y="-8"
     inkscape:window-maximized="1"
     objecttolerance="10"
     guidetolerance="9"
     showguides="true"
     inkscape:guide-bbox="true">
    <sodipodi:guide
       position="499.99767,377.08209"
       orientation="1,0"
       id="guide4510"
       inkscape:locked="false" />
  </sodipodi:namedview>
  <metadata
     id="metadata7">
    <rdf:RDF>
      <cc:Work
         rdf:about="">
        <dc:format>image/svg+xml</dc:format>
        <dc:type
           rdf:resource="http://purl.org/dc/dcmitype/StillImage" />
        <dc:title />
        <dc:creator>
          <cc:Agent>
            <dc:title>Jorge Rosa</dc:title>
          </cc:Agent>
        </dc:creator>
        <dc:description>Email: jorge.bigarte@gmail.com
Site:https://sites.google.com/site/jorgerosaportfolio</dc:description>
      </cc:Work>
    </rdf:RDF>
  </metadata>
  <g
     inkscape:label="Layer 1"
     inkscape:groupmode="layer"
     id="layer1"
     transform="translate(0,-1007.3622)">
    <g
       style="font-style:normal;font-variant:normal;font-weight:normal;font-stretch:normal;font-size:13.65747356px;line-height:100%;font-family:'Estrangelo Edessa';-inkscape-font-specification:'Estrangelo Edessa, Normal';text-align:start;letter-spacing:0px;word-spacing:0px;writing-mode:lr-tb;text-anchor:start;fill:#1e1e1e;fill-opacity:1;stroke:none;stroke-width:1px;stroke-linecap:butt;stroke-linejoin:miter;stroke-opacity:1"
       id="text4162">
      <g
         id="g4183"
         transform="translate(0.27924905)">
        <path
           inkscape:connector-curvature="0"
           id="rect4183-9-6"
           d="m 999.72073,1007.3622 v 45 H -0.27922905 v -44.9999 z"
           style="font-style:normal;font-variant:normal;font-weight:normal;font-stretch:normal;font-size:13.65747356px;line-height:100%;font-family:'Estrangelo Edessa';-inkscape-font-specification:'Estrangelo Edessa, Normal';text-align:start;letter-spacing:0px;word-spacing:0px;writing-mode:lr-tb;text-anchor:start;opacity:1;fill:url(#radialGradient4196-1-2);fill-opacity:1;stroke:none;stroke-width:1.53299999;stroke-linecap:round;stroke-linejoin:round;stroke-miterlimit:4;stroke-dasharray:none;stroke-dashoffset:0;stroke-opacity:1" />
        <path
           style="color:#000000;font-style:normal;font-variant:normal;font-weight:normal;font-stretch:normal;font-size:medium;line-height:100%;font-family:'Estrangelo Edessa';-inkscape-font-specification:'Estrangelo Edessa, Normal';font-variant-ligatures:normal;font-variant-position:normal;font-variant-caps:normal;font-variant-numeric:normal;font-variant-alternates:normal;font-feature-settings:normal;text-indent:0;text-align:start;text-decoration:none;text-decoration-line:none;text-decoration-style:solid;text-decoration-color:#000000;letter-spacing:0px;word-spacing:0px;text-transform:none;writing-mode:lr-tb;direction:ltr;text-orientation:mixed;dominant-baseline:auto;baseline-shift:baseline;text-anchor:start;white-space:normal;shape-padding:0;clip-rule:nonzero;display:inline;overflow:visible;visibility:visible;opacity:0.5;isolation:auto;mix-blend-mode:normal;color-interpolation:sRGB;color-interpolation-filters:linearRGB;solid-color:#000000;solid-opacity:1;vector-effect:none;fill:url(#radialGradient4683);fill-opacity:1;fill-rule:evenodd;stroke:none;stroke-width:1.21981359;stroke-linecap:butt;stroke-linejoin:miter;stroke-miterlimit:4;stroke-dasharray:none;stroke-dashoffset:0;stroke-opacity:1;color-rendering:auto;image-rendering:optimizeQuality;shape-rendering:geometricPrecision;text-rendering:geometricPrecision;enable-background:accumulate"
           d="m 12.780314,1022.7139 v 0.8802 H 986.66119 v -0.8802 z m 0,5.6456 v 0.8819 H 986.66119 v -0.8819 z m 0,5.6456 v 0.8818 H 986.66119 v -0.8818 z m 0,5.6473 v 0.8818 H 986.66119 v -0.8818 z m 0,5.6456 v 0.8818 H 986.66119 v -0.8818 z"
           id="path9"
           inkscape:connector-curvature="0" />
        <path
           inkscape:connector-curvature="0"
           style="font-style:normal;font-variant:normal;font-weight:normal;font-stretch:normal;font-size:13.65747356px;line-height:100%;font-family:'Estrangelo Edessa';-inkscape-font-specification:'Estrangelo Edessa, Normal';text-align:start;letter-spacing:0px;word-spacing:0px;writing-mode:lr-tb;text-anchor:start;opacity:1;fill:#000000;fill-opacity:1;fill-rule:evenodd;stroke:#131516;stroke-width:0.02511075;stroke-linecap:butt;stroke-linejoin:miter;stroke-opacity:1;image-rendering:optimizeQuality;shape-rendering:geometricPrecision;text-rendering:geometricPrecision"
           d="m 488.24419,1014.4579 v 2.5859 16.5312 c -0.29193,-0.1936 -0.67585,-0.2851 -1.16797,-0.2851 -0.50879,0 -1.03454,0.1172 -1.56836,0.3691 -0.53382,0.2521 -0.98419,0.5873 -1.32617,1.0157 -0.35032,0.42 -0.52539,0.882 -0.52539,1.3691 0,0.462 0.16688,0.8071 0.49218,1.0508 0.33364,0.2436 0.74173,0.3613 1.24219,0.3613 0.4921,0 0.99317,-0.1169 1.50196,-0.3437 0.5088,-0.2268 0.92613,-0.5464 1.25976,-0.9747 0.32529,-0.4284 0.49219,-0.9164 0.49219,-1.4707 l 0.0332,-7.3574 c 0.37534,0.3024 0.87533,0.6468 1.51758,1.0332 0.64225,0.3863 1.093,0.6707 1.35156,0.8555 0.25857,0.1848 0.49265,0.4544 0.70117,0.7988 0.20018,0.3444 0.29883,0.7803 0.29883,1.3262 0,0.714 -0.22484,1.7307 -0.68359,3.041 h 0.30078 c 0.50045,-1.0751 0.75,-2.1158 0.75,-3.1406 0,-0.7223 -0.13402,-1.2849 -0.39258,-1.6797 0.21686,-0.4368 0.33399,-0.9326 0.33399,-1.4785 0,-0.5545 -0.11713,-1.0917 -0.33399,-1.5957 0.20018,-0.5039 0.30078,-1.0422 0.30078,-1.6133 0,-0.5964 -0.1006,-1.0921 -0.30078,-1.4785 0.10842,-0.6047 0.16797,-1.133 0.16797,-1.5781 0,-0.924 -0.17507,-1.6902 -0.52539,-2.295 -0.35031,-0.5963 -0.87606,-1.2165 -1.56836,-1.8633 -0.69229,-0.6468 -1.18358,-1.1768 -1.49219,-1.58 -0.30861,-0.4116 -0.45898,-0.9483 -0.45898,-1.6035 z m 75.13866,2.7929 v 2.5879 16.5293 c -0.29193,-0.1936 -0.67586,-0.2851 -1.16797,-0.2851 -0.5088,0 -1.03454,0.1172 -1.56836,0.3691 -0.53382,0.252 -0.98419,0.5892 -1.32617,1.0176 -0.35032,0.42 -0.52539,0.882 -0.52539,1.3691 0,0.462 0.1669,0.8052 0.49219,1.0488 0.33365,0.2436 0.74173,0.3614 1.24218,0.3614 0.49211,0 0.99316,-0.1171 1.50196,-0.3438 0.50879,-0.2268 0.92613,-0.5463 1.25976,-0.9746 0.3253,-0.4285 0.49219,-0.9163 0.49219,-1.4707 l 0.0332,-7.3574 c 0.37534,0.3024 0.87533,0.6469 1.51758,1.0332 0.64225,0.3864 1.093,0.6726 1.35156,0.8574 0.25857,0.1847 0.49265,0.4525 0.70118,0.7969 0.20017,0.3444 0.30078,0.7821 0.30078,1.3281 0,0.714 -0.2268,1.7307 -0.68555,3.041 h 0.30078 c 0.50046,-1.0751 0.75195,-2.1178 0.75195,-3.1426 0,-0.7223 -0.134,-1.2848 -0.39257,-1.6796 0.21686,-0.4368 0.33398,-0.9327 0.33398,-1.4786 0,-0.5545 -0.11712,-1.0917 -0.33398,-1.5957 0.20018,-0.504 0.30078,-1.042 0.30078,-1.6132 0,-0.5963 -0.1006,-1.0923 -0.30078,-1.4786 0.10842,-0.6048 0.16601,-1.133 0.16601,-1.5781 0,-0.924 -0.17507,-1.6882 -0.52539,-2.2929 -0.35031,-0.5963 -0.87607,-1.2185 -1.56836,-1.8653 -0.6923,-0.6468 -1.18357,-1.1749 -1.49219,-1.5781 -0.30861,-0.4116 -0.45898,-0.9504 -0.45898,-1.6055 z m -74.70507,0.2813 c 0.70897,0.4368 1.30139,0.8394 1.78516,1.209 0.48377,0.3695 0.92491,0.849 1.30859,1.4453 0.38368,0.588 0.57617,1.2677 0.57617,2.0488 0,0.2017 -0.0174,0.4027 -0.0508,0.6211 -0.30861,-0.5879 -0.60846,-1.0408 -0.90039,-1.3516 -0.30027,-0.3109 -0.71708,-0.7219 -1.26758,-1.2343 -0.54216,-0.5123 -0.92624,-0.9579 -1.13476,-1.336 -0.20852,-0.3779 -0.31641,-0.8479 -0.31641,-1.4023 z m 41.29882,0.332 v 12.9844 c -0.34197,-0.2772 -0.7657,-0.4199 -1.25781,-0.4199 -0.48377,0 -0.98535,0.1263 -1.49414,0.3867 -0.50879,0.252 -0.94319,0.597 -1.28516,1.0254 -0.34198,0.4284 -0.52442,0.8897 -0.54102,1.3769 0.0334,0.4452 0.20844,0.789 0.52539,1.041 0.31696,0.2436 0.7087,0.3711 1.17579,0.3711 0.49211,0 0.99263,-0.1189 1.50976,-0.3457 0.50881,-0.2268 0.93394,-0.5546 1.26758,-0.9746 0.33363,-0.4116 0.5,-0.8815 0.5,-1.4023 v -14.043 z m 33.83984,2.4609 c 0.70897,0.4368 1.30139,0.8393 1.78516,1.209 0.48378,0.3695 0.92491,0.8489 1.30859,1.4453 0.38368,0.588 0.57617,1.2678 0.57617,2.0489 0,0.2017 -0.0174,0.4046 -0.0508,0.623 -0.30862,-0.5879 -0.60846,-1.0427 -0.90039,-1.3535 -0.30027,-0.3109 -0.71709,-0.722 -1.26757,-1.2344 -0.54216,-0.5124 -0.92625,-0.9578 -1.13477,-1.3359 -0.20852,-0.3779 -0.31641,-0.848 -0.31641,-1.4024 z m -75.13866,0.3321 c 0.6339,0.3528 1.23414,0.7549 1.79297,1.2168 0.56719,0.4536 1.02611,0.9745 1.38477,1.5625 0.367,0.5796 0.54101,1.193 0.54101,1.8398 0,0.2519 -0.0164,0.4794 -0.0664,0.6895 -0.25857,-0.5545 -0.54099,-0.9908 -0.84961,-1.3184 -0.30861,-0.3277 -0.74247,-0.731 -1.29297,-1.2266 -0.5505,-0.4956 -0.94277,-0.9338 -1.16797,-1.3203 -0.2252,-0.3864 -0.3418,-0.8637 -0.3418,-1.4433 z m 75.13866,2.7929 c 0.6339,0.3528 1.23413,0.7569 1.79297,1.2188 0.56718,0.4536 1.02611,0.9725 1.38477,1.5605 0.367,0.5796 0.54297,1.193 0.54297,1.8399 0,0.2519 -0.0164,0.4794 -0.0664,0.6894 -0.25856,-0.5544 -0.54295,-0.9908 -0.85156,-1.3183 -0.30861,-0.3277 -0.74248,-0.731 -1.29297,-1.2266 -0.55051,-0.4956 -0.94276,-0.9319 -1.16797,-1.3183 -0.2252,-0.3864 -0.3418,-0.8658 -0.3418,-1.4454 z m -144.45311,0.074 v 12.9863 c -0.34198,-0.2772 -0.76569,-0.4199 -1.25781,-0.4199 -0.48377,0 -0.98534,0.1263 -1.49415,0.3867 -0.50878,0.2519 -0.94318,0.5969 -1.28515,1.0254 -0.34198,0.4283 -0.52442,0.8897 -0.54102,1.3769 0.0334,0.4451 0.20844,0.789 0.52539,1.041 0.31696,0.2437 0.7087,0.3692 1.17578,0.3692 0.49212,0 0.99264,-0.117 1.50977,-0.3438 0.5088,-0.2268 0.93394,-0.5547 1.26758,-0.9746 0.33364,-0.4116 0.5,-0.8815 0.5,-1.4023 v -14.0449 z m 33.29101,0 v 12.9863 c -0.29193,-0.2604 -0.69238,-0.3867 -1.20117,-0.3867 -0.49212,0 -0.9921,0.1263 -1.51758,0.3867 -0.51714,0.2603 -0.95099,0.6134 -1.29296,1.0586 -0.34199,0.4453 -0.50782,0.9145 -0.50782,1.4101 0.0334,0.4368 0.20844,0.766 0.52539,0.9844 0.30861,0.2184 0.70035,0.3262 1.17578,0.3262 0.49212,0 0.99316,-0.117 1.50196,-0.3438 0.50879,-0.2352 0.92418,-0.5553 1.25781,-0.9668 0.3253,-0.4116 0.49219,-0.8729 0.49219,-1.3769 v -7.3906 c 0.15014,0.05 0.28503,0.1251 0.41015,0.2011 0.11677,0.076 0.29967,0.2004 0.53321,0.3516 0.22521,0.1595 0.40028,0.2689 0.52539,0.3359 1.6932,0.8568 2.53515,2.0171 2.53515,3.4786 0,0.7644 -0.25773,1.6627 -0.7832,2.6875 h 0.27539 c 0.27525,-0.3865 0.48267,-0.8478 0.63281,-1.377 0.14182,-0.5292 0.20899,-1.0581 0.20899,-1.5957 0,-0.8315 -0.14166,-1.4549 -0.4336,-1.8496 0.15845,-0.5544 0.23438,-1.0833 0.23438,-1.5957 0,-0.6635 -0.11854,-1.2421 -0.34375,-1.7461 -0.23355,-0.504 -0.55846,-1.0342 -0.99219,-1.5801 -0.30027,-0.3864 -0.7089,-0.8148 -1.23437,-1.2851 -0.53382,-0.462 -0.90956,-0.8725 -1.13477,-1.2168 -0.23354,-0.3444 -0.37519,-0.8493 -0.43359,-1.4961 z m 95.09179,0.072 v 12.9864 c -0.34198,-0.2772 -0.76765,-0.42 -1.25977,-0.42 -0.48376,0 -0.98534,0.1263 -1.49414,0.3867 -0.50879,0.252 -0.94123,0.597 -1.2832,1.0254 -0.34198,0.4283 -0.52637,0.8898 -0.54297,1.377 0.0334,0.4452 0.20844,0.7889 0.52539,1.041 0.31696,0.2436 0.70869,0.3711 1.17578,0.3711 0.49211,0 0.99264,-0.1189 1.50977,-0.3457 0.5088,-0.2268 0.93589,-0.5546 1.26953,-0.9746 0.33364,-0.4116 0.5,-0.8816 0.5,-1.4024 v -14.0449 z m -59.10155,0.1504 c 0.97588,0.4956 1.84254,1.1428 2.60156,1.9492 0.75903,0.8148 1.13477,1.7139 1.13477,2.7051 0,0.2015 -0.0256,0.4455 -0.084,0.7227 -0.14179,-0.3191 -0.42528,-0.69 -0.83398,-1.1016 -0.41705,-0.4032 -0.84986,-0.8394 -1.3086,-1.293 -0.45041,-0.462 -0.81849,-0.9313 -1.09375,-1.4101 -0.27524,-0.4788 -0.41601,-1.0095 -0.41601,-1.5723 z m -53.60938,1.7129 v 4.4023 8.584 c -0.28359,-0.2604 -0.7498,-0.3867 -1.40039,-0.3867 -0.46709,0 -0.95072,0.1256 -1.45117,0.3692 -0.50046,0.2436 -0.91885,0.5801 -1.24414,1 -0.3253,0.4285 -0.49219,0.8912 -0.49219,1.3867 0,0.4704 0.16742,0.8306 0.48438,1.0742 0.32529,0.2436 0.73498,0.3711 1.21875,0.3711 0.5088,0 1.0166,-0.1111 1.52539,-0.3379 0.51715,-0.2268 0.94228,-0.5528 1.26758,-0.9727 0.33364,-0.4201 0.49218,-0.9078 0.49218,-1.4453 v -9.5078 c 0.47543,0.025 0.9349,0.1679 1.37696,0.4199 0.44207,0.2603 0.83327,0.5865 1.18359,0.9981 0.34197,0.4116 0.61871,0.8585 0.81055,1.3457 0.19189,0.4788 0.2832,0.9568 0.2832,1.4355 0,0.3024 -0.0334,0.6053 -0.0918,0.916 -0.0667,0.3108 -0.15914,0.6209 -0.26757,0.9317 -0.11677,0.3107 -0.25754,0.6546 -0.41602,1.041 -0.16682,0.378 -0.31824,0.7138 -0.44336,1.0078 h 0.26758 c 0.98423,-1.6631 1.4668,-3.0732 1.4668,-4.2324 0,-1.1255 -0.3985,-2.209 -1.19922,-3.2422 -0.26691,-0.3443 -0.60924,-0.757 -1.04297,-1.2441 -0.43372,-0.4871 -0.7597,-0.8805 -0.97656,-1.1914 -0.20851,-0.3108 -0.40012,-0.681 -0.5586,-1.1094 -0.16682,-0.4368 -0.29249,-0.975 -0.39258,-1.6133 z m 75.09375,0.3828 v 4.4004 8.584 c -0.28359,-0.2605 -0.75176,-0.3867 -1.40234,-0.3867 -0.4671,0 -0.95071,0.1275 -1.45117,0.3711 -0.50045,0.2436 -0.91689,0.58 -1.24219,1 -0.32529,0.4284 -0.49219,0.8892 -0.49219,1.3847 0,0.4704 0.16547,0.8326 0.48242,1.0762 0.3253,0.2436 0.73498,0.3691 1.21875,0.3691 0.50879,0 1.01659,-0.1092 1.5254,-0.3359 0.51713,-0.2268 0.94424,-0.5547 1.26953,-0.9746 0.33365,-0.4201 0.49218,-0.9078 0.49218,-1.4453 v -9.5078 c 0.47543,0.025 0.93293,0.1679 1.375,0.4199 0.44206,0.2604 0.83523,0.5884 1.18555,1 0.34198,0.4116 0.61675,0.8565 0.80859,1.3437 0.19189,0.4788 0.28321,0.9569 0.28321,1.4356 0,0.3024 -0.0334,0.6053 -0.0918,0.916 -0.0667,0.3108 -0.15915,0.6208 -0.26758,0.9316 -0.11677,0.3108 -0.25754,0.6566 -0.41601,1.043 -0.16682,0.3781 -0.31629,0.7138 -0.44141,1.0078 h 0.26563 c 0.98422,-1.6631 1.46875,-3.0751 1.46875,-4.2343 0,-1.1255 -0.40045,-2.2091 -1.20118,-3.2422 -0.2669,-0.3444 -0.60924,-0.755 -1.04296,-1.2422 -0.43373,-0.4871 -0.75971,-0.8826 -0.97657,-1.1934 -0.20852,-0.3109 -0.40012,-0.681 -0.55859,-1.1094 -0.16682,-0.4368 -0.29054,-0.9729 -0.39063,-1.6113 z m 53.65429,0.6992 c 0.97588,0.4956 1.84254,1.1409 2.60156,1.9473 0.75902,0.8148 1.13477,1.7139 1.13477,2.7051 0,0.2016 -0.0256,0.4454 -0.084,0.7226 -0.1418,-0.3192 -0.42528,-0.688 -0.83398,-1.0996 -0.41705,-0.4032 -0.84985,-0.8414 -1.30859,-1.2949 -0.45041,-0.462 -0.81655,-0.9314 -1.0918,-1.4102 -0.27525,-0.4788 -0.41797,-1.0075 -0.41797,-1.5703 z m -110.59374,0.1075 c 0.45875,0.252 0.89155,0.5204 1.30859,0.8144 0.40871,0.294 0.79226,0.6225 1.14258,0.9922 0.35032,0.3695 0.64198,0.7967 0.86719,1.2754 0.2252,0.4704 0.33398,0.9926 0.33398,1.5469 0,0.2521 -0.0169,0.4865 -0.0586,0.705 -0.1835,-0.3528 -0.63424,-0.8731 -1.35156,-1.5703 -0.72565,-0.6972 -1.27595,-1.3101 -1.66797,-1.8476 -0.38369,-0.5377 -0.57422,-1.1769 -0.57422,-1.916 z m 17.23437,0.053 v 15.4219 c -0.31695,-0.2603 -0.75081,-0.3868 -1.29296,-0.3868 -0.45876,0 -0.94184,0.1179 -1.45899,0.3614 -0.51713,0.252 -0.95151,0.5786 -1.28515,0.9902 -0.34198,0.4116 -0.51758,0.8572 -0.51758,1.3359 0,0.4872 0.1596,0.8574 0.47656,1.1094 0.31695,0.2436 0.72611,0.3692 1.22656,0.3692 0.49211,0 0.9912,-0.1184 1.5,-0.3536 0.50879,-0.2352 0.92614,-0.5609 1.25977,-0.9726 0.33364,-0.4116 0.5,-0.8657 0.5,-1.3613 v -7.5762 c 0.80072,0.504 1.40237,0.8972 1.80273,1.166 0.40036,0.2772 0.7674,0.5812 1.10938,0.9004 0.34197,0.3276 0.60893,0.6887 0.80078,1.0918 0.19189,0.3948 0.2832,0.839 0.2832,1.3262 0,0.7644 -0.24955,1.6727 -0.75,2.7226 h 0.26563 c 0.28359,-0.4284 0.49297,-0.9078 0.63476,-1.4453 0.15007,-0.5377 0.2168,-1.0749 0.2168,-1.5957 0,-0.756 -0.13348,-1.3021 -0.40039,-1.6465 0.11682,-0.4788 0.16601,-0.9077 0.16601,-1.2773 0,-0.4704 -0.0658,-0.9239 -0.19921,-1.3438 0.13348,-0.4957 0.19921,-0.9829 0.19921,-1.4785 0,-1.4448 -0.5421,-2.6878 -1.63476,-3.7461 -0.60888,-0.5796 -1.08433,-1.0244 -1.41797,-1.3437 -0.34198,-0.3191 -0.58318,-0.6386 -0.75,-0.9493 -0.16682,-0.3108 -0.27617,-0.7555 -0.32617,-1.3183 z m 112.8457,2.416 v 12.8008 c -0.3253,-0.252 -0.72574,-0.3691 -1.20117,-0.3691 -0.49211,0 -1.00045,0.1091 -1.51758,0.3359 -0.51714,0.2352 -0.95047,0.5538 -1.30078,0.957 -0.34198,0.4116 -0.51856,0.8743 -0.53516,1.3867 0,0.4787 0.0668,0.8562 0.18359,1.125 0.12511,0.2688 0.31762,0.4533 0.57618,0.5625 0.26691,0.109 0.61653,0.168 1.05859,0.168 0.42539,-0.017 0.88537,-0.1509 1.36914,-0.3945 0.49212,-0.2521 0.90021,-0.5884 1.24219,-1 0.34197,-0.4116 0.51739,-0.8394 0.52539,-1.293 v -14.2793 z m -112.3789,0.6406 c 0.75902,0.5041 1.37665,0.941 1.84375,1.3106 0.47542,0.3696 0.89223,0.8311 1.26758,1.4023 0.37534,0.5627 0.55859,1.1843 0.55859,1.8731 0,0.1764 -0.0154,0.3705 -0.0488,0.5722 -0.26691,-0.5628 -0.56054,-1.0175 -0.86914,-1.3535 -0.30862,-0.336 -0.73325,-0.7459 -1.2754,-1.25 -0.54216,-0.504 -0.92571,-0.9323 -1.14257,-1.2851 -0.21686,-0.3444 -0.33399,-0.7739 -0.33399,-1.2696 z m -0.0332,2.9239 c 2.45222,1.3355 3.66992,2.856 3.66992,4.5527 0,0.1764 9.8e-4,0.3093 -0.0156,0.4023 -0.1835,-0.336 -0.49206,-0.7134 -0.92579,-1.125 -0.43373,-0.4116 -0.86083,-0.8069 -1.26953,-1.1933 -0.40871,-0.3948 -0.74091,-0.7968 -1.00781,-1.2168 -0.26691,-0.42 -0.41777,-0.8906 -0.45117,-1.4199 z m 111.96093,9.5214 c 0.25022,0.059 0.36718,0.2024 0.36718,0.4375 0,0.2521 -0.18182,0.5793 -0.54882,0.9825 -0.367,0.4032 -0.67608,0.688 -0.91797,0.8476 -0.367,0.2856 -0.75056,0.5124 -1.14258,0.6719 -0.40037,0.1681 -0.72633,0.2539 -0.97656,0.2539 -0.25023,-0.059 -0.4002,-0.2023 -0.4336,-0.4375 0.0167,-0.2352 0.16616,-0.5123 0.44141,-0.8398 0.27524,-0.3277 0.50062,-0.5471 0.67578,-0.6563 1.08431,-0.8399 1.92628,-1.2598 2.53516,-1.2598 z"
           id="path23-9" />
        <path
           style="opacity:1;fill:#c8c8c8;fill-opacity:1;fill-rule:evenodd;stroke:#131516;stroke-width:0.02511075;image-rendering:optimizeQuality;shape-rendering:geometricPrecision;text-rendering:geometricPrecision"
           d="m 488.24419,1013.3579 v 2.586 16.5312 c -0.29193,-0.1936 -0.67585,-0.2852 -1.16797,-0.2852 -0.50879,0 -1.03454,0.1173 -1.56836,0.3692 -0.53382,0.2521 -0.98419,0.5872 -1.32617,1.0156 -0.35032,0.42 -0.52539,0.8821 -0.52539,1.3692 0,0.462 0.16688,0.807 0.49218,1.0507 0.33364,0.2436 0.74173,0.3614 1.24219,0.3614 0.4921,0 0.99317,-0.117 1.50196,-0.3438 0.5088,-0.2268 0.92613,-0.5463 1.25976,-0.9746 0.32529,-0.4284 0.49219,-0.9164 0.49219,-1.4707 l 0.0332,-7.3574 c 0.37534,0.3024 0.87533,0.6468 1.51758,1.0332 0.64225,0.3863 1.093,0.6706 1.35156,0.8554 0.25857,0.1848 0.49265,0.4545 0.70117,0.7989 0.20018,0.3444 0.29883,0.7802 0.29883,1.3261 0,0.714 -0.22484,1.7308 -0.68359,3.0411 h 0.30078 c 0.50045,-1.0751 0.75,-2.1159 0.75,-3.1407 0,-0.7223 -0.13402,-1.2848 -0.39258,-1.6796 0.21686,-0.4368 0.33399,-0.9327 0.33399,-1.4786 0,-0.5545 -0.11713,-1.0917 -0.33399,-1.5957 0.20018,-0.5039 0.30078,-1.0421 0.30078,-1.6132 0,-0.5964 -0.1006,-1.0922 -0.30078,-1.4786 0.10842,-0.6047 0.16797,-1.133 0.16797,-1.5781 0,-0.924 -0.17507,-1.6901 -0.52539,-2.2949 -0.35031,-0.5963 -0.87606,-1.2165 -1.56836,-1.8633 -0.69229,-0.6468 -1.18358,-1.1769 -1.49219,-1.5801 -0.30861,-0.4116 -0.45898,-0.9483 -0.45898,-1.6035 z m 75.13867,2.793 v 2.5879 16.5293 c -0.29193,-0.1936 -0.67586,-0.2852 -1.16797,-0.2852 -0.5088,0 -1.03454,0.1173 -1.56836,0.3692 -0.53382,0.252 -0.98419,0.5891 -1.32617,1.0175 -0.35032,0.42 -0.52539,0.8821 -0.52539,1.3692 0,0.462 0.1669,0.8052 0.49219,1.0488 0.33365,0.2436 0.74173,0.3613 1.24218,0.3613 0.49211,0 0.99316,-0.117 1.50196,-0.3437 0.50879,-0.2268 0.92613,-0.5463 1.25976,-0.9746 0.3253,-0.4285 0.49219,-0.9163 0.49219,-1.4707 l 0.0332,-7.3575 c 0.37534,0.3024 0.87533,0.6469 1.51758,1.0332 0.64225,0.3864 1.093,0.6727 1.35156,0.8575 0.25857,0.1847 0.49265,0.4524 0.70118,0.7968 0.20017,0.3444 0.30078,0.7822 0.30078,1.3282 0,0.714 -0.2268,1.7307 -0.68555,3.041 h 0.30078 c 0.50046,-1.0751 0.75195,-2.1178 0.75195,-3.1426 0,-0.7223 -0.134,-1.2849 -0.39257,-1.6797 0.21686,-0.4368 0.33398,-0.9326 0.33398,-1.4785 0,-0.5545 -0.11712,-1.0917 -0.33398,-1.5957 0.20018,-0.504 0.30078,-1.0421 0.30078,-1.6133 0,-0.5963 -0.1006,-1.0922 -0.30078,-1.4785 0.10842,-0.6048 0.16601,-1.133 0.16601,-1.5781 0,-0.924 -0.17507,-1.6883 -0.52539,-2.293 -0.35031,-0.5963 -0.87607,-1.2184 -1.56836,-1.8652 -0.6923,-0.6468 -1.18357,-1.175 -1.49219,-1.5781 -0.30861,-0.4117 -0.45898,-0.9504 -0.45898,-1.6055 z m -74.70508,0.2812 c 0.70897,0.4368 1.30139,0.8394 1.78516,1.209 0.48377,0.3695 0.92491,0.849 1.30859,1.4453 0.38368,0.588 0.57617,1.2678 0.57617,2.0489 0,0.2017 -0.0174,0.4027 -0.0508,0.6211 -0.30861,-0.5879 -0.60846,-1.0408 -0.90039,-1.3516 -0.30027,-0.3109 -0.71708,-0.722 -1.26758,-1.2344 -0.54216,-0.5123 -0.92624,-0.9578 -1.13476,-1.3359 -0.20852,-0.3779 -0.31641,-0.848 -0.31641,-1.4024 z m 41.29883,0.3321 v 12.9843 c -0.34197,-0.2772 -0.7657,-0.4199 -1.25781,-0.4199 -0.48377,0 -0.98535,0.1263 -1.49414,0.3867 -0.50879,0.252 -0.94319,0.597 -1.28516,1.0254 -0.34198,0.4284 -0.52442,0.8898 -0.54102,1.377 0.0334,0.4452 0.20844,0.789 0.52539,1.041 0.31696,0.2436 0.7087,0.3711 1.17579,0.3711 0.49211,0 0.99263,-0.1189 1.50976,-0.3457 0.50881,-0.2268 0.93394,-0.5546 1.26758,-0.9746 0.33363,-0.4116 0.5,-0.8816 0.5,-1.4024 v -14.0429 z m 33.83984,2.4609 c 0.70897,0.4368 1.30139,0.8393 1.78516,1.209 0.48378,0.3695 0.92491,0.8489 1.30859,1.4453 0.38368,0.588 0.57617,1.2677 0.57617,2.0488 0,0.2017 -0.0174,0.4047 -0.0508,0.6231 -0.30862,-0.5879 -0.60846,-1.0427 -0.90039,-1.3535 -0.30027,-0.3109 -0.71709,-0.722 -1.26757,-1.2344 -0.54216,-0.5124 -0.92625,-0.9579 -1.13477,-1.336 -0.20852,-0.3779 -0.31641,-0.8479 -0.31641,-1.4023 z m -75.13867,0.332 c 0.6339,0.3528 1.23414,0.7549 1.79297,1.2168 0.56719,0.4536 1.02611,0.9745 1.38477,1.5625 0.367,0.5796 0.54101,1.1931 0.54101,1.8399 0,0.2519 -0.0164,0.4793 -0.0664,0.6894 -0.25857,-0.5545 -0.54099,-0.9907 -0.84961,-1.3183 -0.30861,-0.3277 -0.74247,-0.731 -1.29297,-1.2266 -0.5505,-0.4956 -0.94277,-0.9338 -1.16797,-1.3203 -0.2252,-0.3864 -0.3418,-0.8638 -0.3418,-1.4434 z m 75.13867,2.793 c 0.6339,0.3528 1.23413,0.7569 1.79297,1.2188 0.56718,0.4536 1.02611,0.9725 1.38477,1.5605 0.367,0.5796 0.54297,1.1929 0.54297,1.8398 0,0.2519 -0.0164,0.4795 -0.0664,0.6895 -0.25856,-0.5544 -0.54295,-0.9909 -0.85156,-1.3184 -0.30861,-0.3277 -0.74248,-0.7309 -1.29297,-1.2265 -0.55051,-0.4956 -0.94276,-0.932 -1.16797,-1.3184 -0.2252,-0.3864 -0.3418,-0.8657 -0.3418,-1.4453 z m -144.45312,0.074 v 12.9863 c -0.34198,-0.2772 -0.76569,-0.4199 -1.25781,-0.4199 -0.48377,0 -0.98534,0.1263 -1.49415,0.3867 -0.50878,0.2519 -0.94318,0.5969 -1.28515,1.0254 -0.34198,0.4283 -0.52442,0.8898 -0.54102,1.377 0.0334,0.4451 0.20844,0.789 0.52539,1.041 0.31696,0.2437 0.7087,0.3691 1.17578,0.3691 0.49212,0 0.99264,-0.1169 1.50977,-0.3437 0.5088,-0.2268 0.93394,-0.5547 1.26758,-0.9746 0.33364,-0.4116 0.5,-0.8816 0.5,-1.4024 v -14.0449 z m 33.29101,0 v 12.9863 c -0.29193,-0.2604 -0.69238,-0.3867 -1.20117,-0.3867 -0.49212,0 -0.9921,0.1263 -1.51758,0.3867 -0.51714,0.2603 -0.95099,0.6134 -1.29296,1.0586 -0.34199,0.4453 -0.50782,0.9146 -0.50782,1.4102 0.0334,0.4368 0.20844,0.766 0.52539,0.9844 0.30861,0.2184 0.70035,0.3261 1.17578,0.3261 0.49212,0 0.99316,-0.1169 1.50196,-0.3437 0.50879,-0.2352 0.92418,-0.5553 1.25781,-0.9668 0.3253,-0.4116 0.49219,-0.873 0.49219,-1.377 v -7.3906 c 0.15014,0.05 0.28503,0.1252 0.41015,0.2012 0.11677,0.076 0.29967,0.2004 0.53321,0.3516 0.22521,0.1595 0.40028,0.2689 0.52539,0.3359 1.6932,0.8568 2.53515,2.017 2.53515,3.4785 0,0.7644 -0.25773,1.6627 -0.7832,2.6875 h 0.27539 c 0.27525,-0.3865 0.48267,-0.8477 0.63281,-1.3769 0.14182,-0.5292 0.20899,-1.0581 0.20899,-1.5957 0,-0.8315 -0.14166,-1.455 -0.4336,-1.8497 0.15845,-0.5544 0.23438,-1.0833 0.23438,-1.5957 0,-0.6635 -0.11854,-1.2421 -0.34375,-1.7461 -0.23355,-0.504 -0.55846,-1.0341 -0.99219,-1.58 -0.30027,-0.3864 -0.7089,-0.8149 -1.23437,-1.2852 -0.53382,-0.462 -0.90956,-0.8725 -1.13477,-1.2168 -0.23354,-0.3444 -0.37519,-0.8493 -0.43359,-1.4961 z m 95.0918,0.072 v 12.9863 c -0.34198,-0.2772 -0.76765,-0.4199 -1.25977,-0.4199 -0.48376,0 -0.98534,0.1263 -1.49414,0.3867 -0.50879,0.252 -0.94123,0.597 -1.2832,1.0254 -0.34198,0.4283 -0.52637,0.8898 -0.54297,1.377 0.0334,0.4452 0.20844,0.7889 0.52539,1.041 0.31696,0.2436 0.70869,0.3711 1.17578,0.3711 0.49211,0 0.99264,-0.1189 1.50977,-0.3457 0.5088,-0.2268 0.93589,-0.5546 1.26953,-0.9746 0.33364,-0.4116 0.5,-0.8816 0.5,-1.4024 v -14.0449 z m -59.10156,0.1504 c 0.97588,0.4956 1.84254,1.1428 2.60156,1.9492 0.75903,0.8148 1.13477,1.7139 1.13477,2.7051 0,0.2015 -0.0256,0.4454 -0.084,0.7226 -0.14179,-0.3191 -0.42528,-0.6899 -0.83398,-1.1015 -0.41705,-0.4032 -0.84986,-0.8394 -1.3086,-1.293 -0.45041,-0.462 -0.81849,-0.9314 -1.09375,-1.4102 -0.27524,-0.4788 -0.41601,-1.0094 -0.41601,-1.5722 z m -53.60938,1.7129 v 4.4023 8.584 c -0.28359,-0.2604 -0.7498,-0.3867 -1.40039,-0.3867 -0.46709,0 -0.95072,0.1255 -1.45117,0.3691 -0.50046,0.2436 -0.91885,0.5801 -1.24414,1 -0.3253,0.4285 -0.49219,0.8912 -0.49219,1.3867 0,0.4704 0.16742,0.8307 0.48438,1.0743 0.32529,0.2436 0.73498,0.371 1.21875,0.371 0.5088,0 1.0166,-0.111 1.52539,-0.3378 0.51715,-0.2268 0.94228,-0.5528 1.26758,-0.9727 0.33364,-0.4201 0.49218,-0.9078 0.49218,-1.4453 v -9.5078 c 0.47543,0.025 0.9349,0.1679 1.37696,0.4199 0.44207,0.2603 0.83327,0.5864 1.18359,0.998 0.34197,0.4116 0.61871,0.8585 0.81055,1.3457 0.19189,0.4788 0.2832,0.9569 0.2832,1.4356 0,0.3024 -0.0334,0.6053 -0.0918,0.916 -0.0667,0.3108 -0.15914,0.6209 -0.26757,0.9317 -0.11677,0.3107 -0.25754,0.6546 -0.41602,1.041 -0.16682,0.378 -0.31824,0.7138 -0.44336,1.0078 h 0.26758 c 0.98423,-1.6631 1.4668,-3.0732 1.4668,-4.2324 0,-1.1255 -0.3985,-2.209 -1.19922,-3.2422 -0.26691,-0.3443 -0.60924,-0.7571 -1.04297,-1.2442 -0.43372,-0.4871 -0.7597,-0.8805 -0.97656,-1.1914 -0.20851,-0.3108 -0.40012,-0.681 -0.5586,-1.1094 -0.16682,-0.4368 -0.29249,-0.9749 -0.39258,-1.6132 z m 75.09375,0.3828 v 4.4004 8.584 c -0.28359,-0.2605 -0.75176,-0.3868 -1.40234,-0.3868 -0.4671,0 -0.95071,0.1275 -1.45117,0.3711 -0.50045,0.2436 -0.91689,0.58 -1.24219,1 -0.32529,0.4284 -0.49219,0.8893 -0.49219,1.3848 0,0.4704 0.16547,0.8326 0.48242,1.0762 0.3253,0.2436 0.73498,0.3691 1.21875,0.3691 0.50879,0 1.01659,-0.1092 1.5254,-0.3359 0.51713,-0.2268 0.94424,-0.5547 1.26953,-0.9746 0.33365,-0.4201 0.49218,-0.9079 0.49218,-1.4454 v -9.5078 c 0.47543,0.025 0.93293,0.168 1.375,0.42 0.44206,0.2604 0.83523,0.5884 1.18555,1 0.34198,0.4116 0.61675,0.8565 0.80859,1.3437 0.19189,0.4788 0.28321,0.9569 0.28321,1.4356 0,0.3024 -0.0334,0.6053 -0.0918,0.916 -0.0667,0.3108 -0.15915,0.6208 -0.26758,0.9316 -0.11677,0.3108 -0.25754,0.6566 -0.41601,1.043 -0.16682,0.3781 -0.31629,0.7138 -0.44141,1.0078 h 0.26563 c 0.98422,-1.6631 1.46875,-3.0752 1.46875,-4.2344 0,-1.1255 -0.40045,-2.2091 -1.20118,-3.2422 -0.2669,-0.3444 -0.60924,-0.755 -1.04296,-1.2422 -0.43373,-0.4871 -0.75971,-0.8825 -0.97657,-1.1933 -0.20852,-0.3109 -0.40012,-0.681 -0.55859,-1.1094 -0.16682,-0.4368 -0.29054,-0.9729 -0.39063,-1.6113 z m 53.6543,0.6992 c 0.97588,0.4956 1.84254,1.1409 2.60156,1.9473 0.75902,0.8148 1.13477,1.7138 1.13477,2.705 0,0.2016 -0.0256,0.4455 -0.084,0.7227 -0.1418,-0.3192 -0.42528,-0.688 -0.83398,-1.0996 -0.41705,-0.4032 -0.84985,-0.8414 -1.30859,-1.2949 -0.45041,-0.462 -0.81655,-0.9314 -1.0918,-1.4102 -0.27525,-0.4788 -0.41797,-1.0075 -0.41797,-1.5703 z m -110.59375,0.1074 c 0.45875,0.252 0.89155,0.5205 1.30859,0.8145 0.40871,0.294 0.79226,0.6225 1.14258,0.9922 0.35032,0.3695 0.64198,0.7967 0.86719,1.2754 0.2252,0.4704 0.33398,0.9925 0.33398,1.5468 0,0.2521 -0.0169,0.4866 -0.0586,0.7051 -0.1835,-0.3528 -0.63424,-0.8731 -1.35156,-1.5703 -0.72565,-0.6972 -1.27595,-1.3102 -1.66797,-1.8477 -0.38369,-0.5377 -0.57422,-1.1769 -0.57422,-1.916 z m 17.23437,0.053 v 15.4218 c -0.31695,-0.2603 -0.75081,-0.3867 -1.29296,-0.3867 -0.45876,0 -0.94184,0.1178 -1.45899,0.3613 -0.51713,0.252 -0.95151,0.5787 -1.28515,0.9903 -0.34198,0.4116 -0.51758,0.8572 -0.51758,1.3359 0,0.4872 0.1596,0.8574 0.47656,1.1094 0.31695,0.2436 0.72611,0.3691 1.22656,0.3691 0.49211,0 0.9912,-0.1183 1.5,-0.3535 0.50879,-0.2352 0.92614,-0.5609 1.25977,-0.9726 0.33364,-0.4116 0.5,-0.8658 0.5,-1.3614 v -7.5761 c 0.80072,0.504 1.40237,0.8972 1.80273,1.166 0.40036,0.2772 0.7674,0.5812 1.10938,0.9004 0.34197,0.3276 0.60893,0.6887 0.80078,1.0918 0.19189,0.3948 0.2832,0.8389 0.2832,1.3261 0,0.7644 -0.24955,1.6728 -0.75,2.7227 h 0.26563 c 0.28359,-0.4284 0.49297,-0.9078 0.63476,-1.4453 0.15007,-0.5377 0.2168,-1.0749 0.2168,-1.5957 0,-0.756 -0.13348,-1.3021 -0.40039,-1.6465 0.11682,-0.4788 0.16601,-0.9078 0.16601,-1.2774 0,-0.4704 -0.0658,-0.9238 -0.19921,-1.3437 0.13348,-0.4957 0.19921,-0.9829 0.19921,-1.4785 0,-1.4448 -0.5421,-2.6878 -1.63476,-3.7461 -0.60888,-0.5796 -1.08433,-1.0245 -1.41797,-1.3438 -0.34198,-0.3191 -0.58318,-0.6385 -0.75,-0.9492 -0.16682,-0.3108 -0.27617,-0.7555 -0.32617,-1.3183 z m 112.84571,2.416 v 12.8008 c -0.3253,-0.252 -0.72574,-0.3692 -1.20117,-0.3692 -0.49211,0 -1.00045,0.1091 -1.51758,0.3359 -0.51714,0.2352 -0.95047,0.5539 -1.30078,0.9571 -0.34198,0.4116 -0.51856,0.8743 -0.53516,1.3867 0,0.4787 0.0668,0.8562 0.18359,1.125 0.12511,0.2688 0.31762,0.4533 0.57618,0.5625 0.26691,0.109 0.61653,0.168 1.05859,0.168 0.42539,-0.017 0.88537,-0.151 1.36914,-0.3946 0.49212,-0.2521 0.90021,-0.5884 1.24219,-1 0.34197,-0.4116 0.51739,-0.8393 0.52539,-1.2929 v -14.2793 z m -112.37891,0.6406 c 0.75902,0.5041 1.37665,0.9409 1.84375,1.3105 0.47542,0.3696 0.89223,0.8312 1.26758,1.4024 0.37534,0.5627 0.55859,1.1842 0.55859,1.873 0,0.1764 -0.0154,0.3706 -0.0488,0.5723 -0.26691,-0.5628 -0.56054,-1.0175 -0.86914,-1.3535 -0.30862,-0.336 -0.73325,-0.7459 -1.2754,-1.25 -0.54216,-0.504 -0.92571,-0.9324 -1.14257,-1.2852 -0.21686,-0.3444 -0.33399,-0.7738 -0.33399,-1.2695 z m -0.0332,2.9238 c 2.45222,1.3355 3.66992,2.8561 3.66992,4.5528 0,0.1764 9.8e-4,0.3093 -0.0156,0.4023 -0.1835,-0.336 -0.49206,-0.7134 -0.92579,-1.125 -0.43373,-0.4116 -0.86083,-0.807 -1.26953,-1.1934 -0.40871,-0.3948 -0.74091,-0.7968 -1.00781,-1.2168 -0.26691,-0.42 -0.41777,-0.8906 -0.45117,-1.4199 z m 111.96094,9.5215 c 0.25022,0.059 0.36718,0.2024 0.36718,0.4375 0,0.2521 -0.18182,0.5792 -0.54882,0.9824 -0.367,0.4032 -0.67608,0.6881 -0.91797,0.8477 -0.367,0.2856 -0.75056,0.5124 -1.14258,0.6719 -0.40037,0.1681 -0.72633,0.2539 -0.97656,0.2539 -0.25023,-0.059 -0.4002,-0.2023 -0.4336,-0.4375 0.0167,-0.2352 0.16616,-0.5124 0.44141,-0.8399 0.27524,-0.3277 0.50062,-0.547 0.67578,-0.6562 1.08431,-0.8399 1.92628,-1.2598 2.53516,-1.2598 z"
           id="path23"
           inkscape:connector-curvature="0" />
      </g>
    </g>
  </g>
</svg>
